<svg xmlns="http://www.w3.org/2000/svg" class="svg-icon" viewBox="0 0 32 32" width="24" height="24" style="fill: rgb(16, 142, 233);"><path d="M29.632 30.368c-0.16-1.856-0.384-3.744-0.544-5.6-0.064-0.704-0.416-1.248-0.928-1.696s-1.12-0.8-1.76-1.056c-1.408-0.576-2.848-1.12-4.256-1.696-0.736-0.288-0.832-0.224-1.024 0.512-0.928 3.52-1.856 7.040-2.816 10.56 0 0.064-0.032 0.16-0.064 0.224h-0.096l-0.64-5.152c-0.096-0.704-0.128-1.408-0.288-2.080-0.16-0.864-0.064-1.696 0.224-2.496 0.16-0.416 0-0.48-0.384-0.48h-2.080c-0.416 0-0.576 0.064-0.416 0.48 0.288 0.8 0.384 1.632 0.224 2.496-0.128 0.672-0.192 1.376-0.288 2.080l-0.64 5.152h-0.096c-0.007-0.083-0.030-0.159-0.066-0.227l0.002 0.003c-0.928-3.52-1.888-7.040-2.816-10.56-0.192-0.736-0.288-0.8-1.024-0.512-1.408 0.576-2.816 1.12-4.256 1.696-0.64 0.256-1.248 0.608-1.76 1.056s-0.864 0.992-0.928 1.696c-0.16 1.856-0.384 3.744-0.544 5.6-0.096 1.12 0.416 1.632 1.536 1.632h24.192c1.12 0 1.632-0.512 1.536-1.632zM10.016 14.24c0.64 1.28 1.376 2.496 2.464 3.456 1.312 1.152 2.816 1.6 4.576 1.28 1.152-0.224 2.080-0.864 2.88-1.696 1.088-1.12 1.792-2.464 2.432-3.84 0.064-0.128 0.096-0.256 0.192-0.32 0.48-0.448 0.736-0.992 0.928-1.6 0.16-0.576 0.224-1.152 0.032-1.76-0.128-0.288-0.288-0.544-0.64-0.544-0.192-0.032-0.192-0.096-0.16-0.256 0.128-0.896 0.224-1.792 0.192-2.688 0-1.088-0.16-2.176-0.736-3.136-0.96-1.664-2.496-2.528-4.32-2.944-0.352-0.096-0.736-0.128-1.088-0.192h-1.536c-0.096 0.064-0.192 0.064-0.256 0.064-1.152 0.128-2.208 0.448-3.2 1.056-1.344 0.832-2.24 2.016-2.528 3.584-0.192 0.928-0.192 1.888-0.128 2.848 0.032 0.48 0.096 0.96 0.16 1.44 0 0.064 0.064 0.192-0.064 0.192-0.64 0.064-0.8 0.544-0.832 1.024-0.096 0.96 0.16 1.824 0.736 2.56 0.384 0.448 0.608 0.96 0.896 1.472zM9.312 10.304c0-0.128 0.064-0.256 0.128-0.384 0.192-0.352 0.512-0.384 0.768-0.032 0.096 0.128 0.192 0.32 0.288 0.48 0.064 0.16 0.128 0.352 0.256 0.512l-0.288-1.44c-0.128-0.768-0.224-1.504-0.192-2.272 0-0.224 0.032-0.416 0.128-0.576 0.48-0.896 1.088-1.664 2.080-2.016 0.384-0.16 0.672-0.128 0.96 0.192 1.504 1.504 3.36 2.272 5.44 2.624 0.832 0.128 1.696 0.224 2.56 0.224 0.256 0.032 0.32 0.096 0.288 0.352-0.117 1.031-0.274 1.935-0.48 2.819l0.032-0.164-0.032 0.224c0.192-0.32 0.32-0.672 0.544-0.96 0.256-0.384 0.576-0.352 0.8 0.064 0.032 0.128 0.096 0.224 0.096 0.352 0 0.8-0.192 1.536-0.8 2.144-0.16 0.128-0.256 0.288-0.352 0.48-0.352 0.832-0.736 1.664-1.216 2.464-0.128 0.256-0.32 0.512-0.48 0.768-1.76 2.624-5.952 2.688-7.776-0.128-0.64-0.992-1.152-2.048-1.632-3.104-0.060-0.188-0.159-0.349-0.288-0.48l0 0c-0.64-0.576-0.832-1.312-0.832-2.144z"></path></svg>
