<svg xmlns="http://www.w3.org/2000/svg" class="svg-icon" viewBox="0 0 32 32" width="24" height="24" style="fill: rgb(232, 160, 16);"><path d="M23.552 10.752v-0.16c0-0 0-0.001 0-0.001 0-0.159-0.128-0.287-0.287-0.287-0 0-0.001 0-0.001 0h-15.648c-0 0-0.001 0-0.001 0-0.159 0-0.287 0.129-0.287 0.287 0 0 0 0.001 0 0.001v-0 1.408c0 0.16 0.128 0.288 0.288 0.288h13.344c0.732-0.645 1.593-1.166 2.535-1.518l0.056-0.018zM19.328 14.208h-11.712c-0 0-0.001 0-0.001 0-0.159 0-0.287 0.129-0.287 0.287 0 0 0 0.001 0 0.001v-0 1.408c0 0.16 0.128 0.256 0.288 0.256h10.848c0.192-0.672 0.48-1.344 0.864-1.952zM7.616 18.272c-0 0-0.001 0-0.001 0-0.159 0-0.287 0.128-0.287 0.287 0 0 0 0.001 0 0.001v-0 1.344c0 0.16 0.128 0.288 0.288 0.288h10.656c-0.096-0.488-0.154-1.051-0.16-1.627l-0-0.005v-0.288h-10.496zM20.064 23.904h-16.128c-0.416 0-0.736-0.32-0.736-0.704v-15.936c0-0.384 0.32-0.704 0.736-0.704h18.72c0.384 0 0.928 0.224 1.248 0.48 0.725 0.605 1.319 1.117 1.904 1.638l-0.081-0.070c0.48 0.416 0.992 0.864 1.472 1.28 0.128 0.096 0.224 0.256 0.32 0.416 0.448 0.064 0.928 0.16 1.344 0.288v-4.448c-0.003-0.387-0.317-0.701-0.704-0.704h-25.44c-0.004-0-0.009-0-0.014-0-0.381 0-0.69 0.309-0.69 0.69 0 0.005 0 0.010 0 0.015v-0.001 18.208c-0 0.004-0 0.009-0 0.014 0 0.381 0.309 0.69 0.69 0.69 0.005 0 0.010-0 0.015-0h18.527c-0.439-0.349-0.827-0.727-1.174-1.14l-0.010-0.012zM29.76 16.576c-0.224-0.448-0.352-0.928-0.224-1.44 0.096-0.544-0.096-0.96-0.608-1.216-0.531-0.208-0.949-0.605-1.179-1.107l-0.005-0.013c-0.256-0.48-0.672-0.672-1.184-0.576-0.163 0.041-0.351 0.065-0.543 0.065-0.386 0-0.75-0.095-1.069-0.263l0.013 0.006c-0.48-0.256-0.928-0.16-1.312 0.224-0.334 0.399-0.8 0.677-1.331 0.766l-0.013 0.002c-0.608 0.064-0.896 0.416-0.96 1.024-0.064 0.512-0.256 0.96-0.64 1.344-0.448 0.416-0.512 0.896-0.192 1.44 0.288 0.448 0.352 0.928 0.256 1.44s0.064 0.96 0.576 1.184c0.576 0.256 0.992 0.672 1.28 1.216 0.088 0.193 0.232 0.347 0.411 0.445l0.005 0.003v5.12c0 0.384 0.16 0.416 0.384 0.096l1.376-2.272c0.192-0.32 0.512-0.32 0.736 0l1.376 2.272c0.192 0.32 0.352 0.288 0.352-0.096v-5.6c0.212-0.126 0.46-0.216 0.725-0.255l0.011-0.001c0.672-0.16 0.864-0.384 0.96-1.024 0.058-0.523 0.278-0.986 0.61-1.346l-0.002 0.002c0.512-0.512 0.544-0.768 0.192-1.44zM25.12 19.872c-1.728 0-3.136-1.408-3.136-3.168 0-1.792 1.408-3.168 3.2-3.168 1.728 0 3.136 1.408 3.168 3.136 0 1.76-1.472 3.232-3.232 3.2zM27.616 16.704c0 1.376-1.088 2.464-2.464 2.464s-2.464-1.088-2.464-2.464 1.12-2.464 2.464-2.464 2.464 1.12 2.464 2.464z"></path></svg>