<svg class="icon" style="width: 1em; height: 1em;vertical-align: middle;fill: currentColor;overflow: hidden;" viewBox="0 0 1024 1024" version="1.1" xmlns="http://www.w3.org/2000/svg" p-id="569"><path d="M942.933333 644.266667c0 32-27.733333 64-27.733333 66.133333-115.2 132.266667-277.333333 206.933333-448 206.933333-128 0-238.933333-61.866667-354.133333-119.466666-10.666667-6.4-21.333333-14.933333-21.333334-27.733334v-153.6c0-17.066667 12.8-29.866667 29.866667-29.866666h544c17.066667 0 42.666667 14.933333 44.8 49.066666 2.133333 0 130.133333-46.933333 147.2-53.333333 44.8-14.933333 85.333333 14.933333 85.333333 61.866667zM797.866667 166.4v298.666667c0 36.266667-27.733333 64-64 64h-469.333334c-36.266667 0-64-27.733333-64-64v-298.666667c0-36.266667 27.733333-64 64-64h469.333334c34.133333 0 64 29.866667 64 64z m-281.6 183.466667v-38.4h64c10.666667 0 17.066667-8.533333 17.066666-17.066667s-8.533333-17.066667-17.066666-17.066667h-42.666667l46.933333-66.133333c6.4-6.4 6.4-17.066667 0-25.6-6.4-6.4-17.066667-6.4-25.6 0l-59.733333 85.333333-59.733333-85.333333c-6.4-6.4-17.066667-6.4-25.6 0-6.4 6.4-6.4 17.066667 0 25.6l49.066666 66.133333h-42.666666c-10.666667 0-17.066667 8.533333-17.066667 17.066667s8.533333 17.066667 17.066667 17.066667h61.866666v38.4h-61.866666c-10.666667 0-17.066667 8.533333-17.066667 17.066666 0 10.666667 8.533333 17.066667 17.066667 17.066667h61.866666v51.2c0 10.666667 8.533333 17.066667 17.066667 17.066667 10.666667 0 17.066667-8.533333 17.066667-17.066667V384h64c10.666667 0 17.066667-8.533333 17.066666-17.066667 0-10.666667-8.533333-17.066667-17.066666-17.066666h-64z" fill="#666666" p-id="570"></path></svg>